<svg xmlns="http://www.w3.org/2000/svg" xmlns:xlink="http://www.w3.org/1999/xlink" xmlns:lucid="lucid" width="1536.52" height="523.23"><g transform="translate(-99.4814814814815 -400)" lucid:page-tab-id="0_0"><path d="M226.67 804.9c-1.45 0-2.7-.53-3.74-1.56L212.3 792.7c-1.92-2.23-1.67-5.6.58-7.5 2-1.74 4.9-1.74 6.92 0l10.65 10.65c2.07 2.08 2.07 5.4 0 7.5-1.05 1.04-2.3 1.54-3.78 1.54zM141.32 804.9c-2.95-.03-5.34-2.42-5.32-5.37 0-1.48.53-2.72 1.58-3.76l10.67-10.67c2.07-2.1 5.45-2.12 7.54-.04l.02.04c2.07 2.07 2.07 5.43 0 7.53l-10.67 10.66c-1.05 1.06-2.33 1.6-3.83 1.6z" stroke="#000" stroke-opacity="0" fill="#669df6"/><path d="M149.16 784.3l-6.5 6.52c2.42 2.9 4.67 5.14 7.57 7.55l6.5-6.54zM225.22 790.6l-5.33-5.34c-.4-.34-.78-.6-1.24-.85l-7.14 7.15c.25.47.5.84.85 1.23l5.33 5.33c2.87-2.4 5.12-4.63 7.52-7.5z" stroke="#000" stroke-opacity="0" fill="#4285f4"/><path d="M184 804.9c-26.5 0-48-21.5-48-48s21.5-48 48-48 48 21.5 48 48-21.5 48-48 48zm0-10.66c20.64 0 37.34-16.7 37.34-37.35 0-20.64-16.7-37.35-37.34-37.35-20.64 0-37.34 16.7-37.34 37.35 0 20.63 16.7 37.34 37.34 37.34z" stroke="#000" stroke-opacity="0" fill="#669df6"/><path d="M183.96 783.65c14.7 0 26.66-11.96 26.66-26.7 0-14.72-11.95-26.68-26.66-26.68v26.7l-21.72 15.52c5.18 7.25 12.82 11.15 21.72 11.15z" stroke="#000" stroke-opacity="0" fill="#4285f4"/><path d="M141.37 725.28c-2.95.02-5.35-2.35-5.37-5.3 0-1.5.5-2.78 1.58-3.83l10.67-10.67c2.07-2.1 5.45-2.1 7.54-.04l.02.04c2.07 2.08 2.07 5.43 0 7.53l-10.67 10.68c-1.03 1.06-2.3 1.6-3.78 1.6zM226.63 725.28c-1.47 0-2.75-.54-3.78-1.6L212.18 713c-2.07-2.1-2.07-5.44 0-7.52 2.08-2.1 5.46-2.1 7.55-.04l.02.04 10.67 10.67c2.1 2.07 2.1 5.45.04 7.55-1.07 1.07-2.33 1.58-3.83 1.58z" stroke="#000" stroke-opacity="0" fill="#aecbfa"/><path d="M184 705.7c24.73 0 44.8 20.07 44.8 44.8 0 24.72-20.07 44.8-44.8 44.8-24.73 0-44.8-20.08-44.8-44.8 0-24.73 20.07-44.8 44.8-44.8z" fill-opacity="0"/><use xlink:href="#a" transform="matrix(1,0,0,1,120,825.895) translate(35.04938271604939 17.77777777777778)"/><use xlink:href="#b" transform="matrix(1,0,0,1,120,825.895) translate(14.061728395061728 44.44444444444444)"/><use xlink:href="#c" transform="matrix(1,0,0,1,120,825.895) translate(0.48148148148148806 71.11111111111111)"/><use xlink:href="#d" transform="matrix(1,0,0,1,120,825.895) translate(70.79012345679013 71.11111111111111)"/><path d="M480.06 765.47c-1 3.47-2.5 6.23-4.84 9l1.38.8 11.17 6.42 11.17 6.43 1.23-2.22 1.3-2.2 1.27-2.2 1.26-2.23-11.17-6.44-11.16-6.43z" stroke="#000" stroke-opacity="0" stroke-width=".5" fill="#4285f4"/><path d="M433.4 765.86l-1.75 1-5.55 3.2-5.55 3.23-5.55 3.2-5.55 3.22.64 1.1.63 1.1.63 1.1.64 1.1.6 1.08.64 1.1.64 1.12.63 1.1 5.56-3.23 5.55-3.22 5.6-3.2 5.53-3.2 1.62-.97c-2.37-2.68-3.87-5.4-4.94-8.85z" stroke="#000" stroke-opacity="0" stroke-width=".87" fill="#4285f4"/><path d="M451.35 706.98V735c1.82-.4 3.4-.6 5.26-.64 1.75 0 3.2.14 4.9.5V707h-7.62z" stroke="#000" stroke-opacity="0" fill="#4285f4"/><path d="M512.08 732.57c0 6.08-4.93 11-11 11s-11-4.92-11-11c0-6.07 4.93-11 11-11s11 4.93 11 11zM423 732.57c0 6.08-4.92 11-11 11-6.07 0-11-4.92-11-11 0-6.07 4.93-11 11-11 6.08 0 11 4.93 11 11zM467.5 809.9c0 6.06-4.93 11-11 11s-11-4.94-11-11c0-6.1 4.93-11.02 11-11.02s11 4.93 11 11z" stroke="#000" stroke-opacity="0" fill="#8ab3f8"/><path d="M474.17 758.3c0 9.82-7.94 17.8-17.73 17.8-9.78 0-17.72-7.98-17.72-17.8s7.94-17.8 17.72-17.8c9.8 0 17.73 7.98 17.73 17.8zM425.96 784.1c0 7.73-6.26 14-13.98 14-7.72 0-13.98-6.27-13.98-14 0-7.74 6.26-14.02 13.98-14.02 7.72 0 13.98 6.28 13.98 14zM515 784.1c0 7.73-6.26 14-13.98 14-7.72 0-13.98-6.27-13.98-14 0-7.74 6.26-14.02 13.98-14.02 7.72 0 13.98 6.28 13.98 14zM470.42 706.9c0 7.75-6.26 14.03-13.98 14.03-7.72 0-13.98-6.28-13.98-14.02 0-7.73 6.26-14 13.98-14 7.72 0 13.98 6.27 13.98 14z" stroke="#000" stroke-opacity="0" fill="#aecbfa"/><path d="M456.5 699.3l-52.65 25v65.08l52.76 25.12 52.55-25.12V724.4z" stroke="#000" stroke-opacity="0" stroke-width=".01" fill-opacity="0"/><use xlink:href="#e" transform="matrix(1,0,0,1,398,825.895) translate(4.950617283950606 17.77777777777778)"/><use xlink:href="#f" transform="matrix(1,0,0,1,398,825.895) translate(25.16666666666667 44.44444444444444)"/><path d="M665 777.17l19.2 13.86v-68.27l-19.2 13.8v40.6z" stroke="#000" stroke-opacity="0" fill="#669df6"/><path d="M665 745.52l19.2-11.38v-11.38L665 745.52zM684.2 791.03v-11.38L665 768.27l19.2 22.76z" stroke="#000" stroke-opacity="0" fill="#4285f4"/><path d="M703.4 802.4L665 768.28v22.76l25.6 22.76 12.8-11.4zM690.5 700L665 722.7l.08 22.82 38.2-34.14-12.8-11.38z" stroke="#000" stroke-opacity="0" fill="#aecbfa"/><path d="M793 736.62l-19.2-13.86v68.27l19.2-13.8v-40.6z" stroke="#000" stroke-opacity="0" fill="#669df6"/><path d="M793 768.27l-19.2 11.38v11.38l19.2-22.76zM773.8 722.76v11.38l19.2 11.38-19.2-22.76z" stroke="#000" stroke-opacity="0" fill="#4285f4"/><path d="M754.6 711.38l38.4 34.14v-22.76L767.4 700l-12.8 11.38zM767.5 813.8l25.5-22.72-.08-22.8-38.2 34.13 12.8 11.4zM709.8 756.9c0 3.14-2.87 5.68-6.4 5.68-3.53 0-6.4-2.54-6.4-5.7 0-3.13 2.87-5.67 6.4-5.67 3.53 0 6.4 2.55 6.4 5.7zM735.4 756.9c0 3.14-2.87 5.68-6.4 5.68-3.53 0-6.4-2.54-6.4-5.7 0-3.13 2.87-5.67 6.4-5.67 3.53 0 6.4 2.55 6.4 5.7zM760.87 756.9c0 3.14-2.87 5.68-6.4 5.68-3.53 0-6.4-2.54-6.4-5.7 0-3.13 2.87-5.67 6.4-5.67 3.53 0 6.4 2.55 6.4 5.7z" stroke="#000" stroke-opacity="0" fill="#aecbfa"/><path d="M684.2 705.7v102.4h89.6V705.7z" stroke="#000" stroke-opacity="0" fill-opacity="0"/><use xlink:href="#g" transform="matrix(1,0,0,1,665,818.79) translate(10.450617283950606 17.77777777777778)"/><path d="M1210 777.17l19.2 13.86v-68.27l-19.2 13.8v40.6z" stroke="#000" stroke-opacity="0" fill="#669df6"/><path d="M1210 745.52l19.2-11.38v-11.38l-19.2 22.76zM1229.2 791.03v-11.38l-19.2-11.38 19.2 22.76z" stroke="#000" stroke-opacity="0" fill="#4285f4"/><path d="M1248.4 802.4l-38.4-34.13v22.76l25.6 22.76 12.8-11.4zM1235.5 700l-25.5 22.7.08 22.82 38.2-34.14-12.8-11.38z" stroke="#000" stroke-opacity="0" fill="#aecbfa"/><path d="M1338 736.62l-19.2-13.86v68.27l19.2-13.8v-40.6z" stroke="#000" stroke-opacity="0" fill="#669df6"/><path d="M1338 768.27l-19.2 11.38v11.38l19.2-22.76zM1318.8 722.76v11.38l19.2 11.38-19.2-22.76z" stroke="#000" stroke-opacity="0" fill="#4285f4"/><path d="M1299.6 711.38l38.4 34.14v-22.76L1312.4 700l-12.8 11.38zM1312.5 813.8l25.5-22.72-.08-22.8-38.2 34.13 12.8 11.4zM1254.8 756.9c0 3.14-2.87 5.68-6.4 5.68-3.53 0-6.4-2.54-6.4-5.7 0-3.13 2.87-5.67 6.4-5.67 3.53 0 6.4 2.55 6.4 5.7zM1280.4 756.9c0 3.14-2.87 5.68-6.4 5.68-3.53 0-6.4-2.54-6.4-5.7 0-3.13 2.87-5.67 6.4-5.67 3.53 0 6.4 2.55 6.4 5.7zM1305.87 756.9c0 3.14-2.87 5.68-6.4 5.68-3.53 0-6.4-2.54-6.4-5.7 0-3.13 2.87-5.67 6.4-5.67 3.53 0 6.4 2.55 6.4 5.7z" stroke="#000" stroke-opacity="0" fill="#aecbfa"/><path d="M1229.2 705.7v102.4h89.6V705.7z" stroke="#000" stroke-opacity="0" fill-opacity="0"/><use xlink:href="#h" transform="matrix(1,0,0,1,1210,818.79) translate(22.086419753086417 17.77777777777778)"/><path d="M1266.58 488.03h14.84V505h-14.84v-16.97z" stroke="#000" stroke-opacity="0" fill="#669df6"/><path d="M1315.47 475.33c-1.02 0-1.92-.35-2.56-1.06l-26.1-27.2-17.54 18.56c-1.28 1.36-3.32 1.5-4.86.35l-13.3-10.8-14.1 18.74c-.76.93-1.66 1.45-2.8 1.4H1210v11.04c0 2.64 2.05 4.76 4.74 4.8h118.52c2.7-.04 4.74-2.16 4.74-4.8v-11.03z" stroke="#000" stroke-opacity="0" fill="#4285f4"/><path d="M1232.4 468.2l15.23-20.3c.64-.8 1.4-1.3 2.43-1.4.9-.1 1.8.15 2.7.78l13.56 11.02 17.92-18.88c.64-.73 1.54-1.12 2.56-1.12.9 0 1.8.4 2.56 1.12l27.65 28.8h21v-43.46c0-2.62-2.18-4.76-4.74-4.76h-118.52c-2.56 0-4.74 2.14-4.74 4.76v43.8z" stroke="#000" stroke-opacity="0" fill="#669df6"/><path d="M1254.67 503.08h38.8c1.27 0 1.9.65 1.9 1.94v.06c0 1.3-.63 1.93-1.9 1.93h-38.8c-1.28 0-1.92-.63-1.92-1.92v-.06c0-1.3.64-1.94 1.92-1.94z" stroke="#000" stroke-opacity="0" fill="#4285f4"/><path d="M1211.28 420.87v60.9h125.44v-60.9z" stroke="#000" stroke-opacity="0" fill-opacity="0"/><use xlink:href="#i" transform="matrix(1,0,0,1,1210,512) translate(35.04938271604939 17.77777777777778)"/><use xlink:href="#j" transform="matrix(1,0,0,1,1210,512) translate(12.271604938271594 44.44444444444444)"/><path d="M1518.2 749.34v16.8c2.8 4.77 6.2 8.26 10.95 11.1v-27.9z" stroke="#000" stroke-opacity="0" fill="#aecbfa"/><path d="M1538.43 733.86V782c2.47.3 4.6.45 7.07.4 2.23.14 4.14.14 6.37 0v-48.54z" stroke="#000" stroke-opacity="0" fill="#669df6"/><path d="M1562.5 756v21c4.77-3.05 8.17-6.66 10.88-11.62V756z" stroke="#000" stroke-opacity="0" fill="#aecbfa"/><path d="M1588.75 784.6l-9.05 9.05-.04.04c-1.04 1.06-1.04 2.77.04 3.8l22.6 22.62c1.04 1.03 2.75 1.03 3.8 0l9.12-9.14c1.04-1.04 1.04-2.74 0-3.78l-22.6-22.6-.04-.05c-1.08-1.03-2.8-1.03-3.83.04" stroke="#000" stroke-opacity="0" fill="#4285f4"/><path d="M1545.6 692.9c-31.8 0-57.6 25.8-57.6 57.6s25.8 57.6 57.6 57.6 57.6-25.8 57.6-57.6-25.8-57.6-57.6-57.6m0 100.45c-23.62-.12-42.74-19.24-42.74-42.86.12-23.62 19.24-42.74 42.86-42.74 23.6.1 42.62 19.12 42.73 42.74 0 23.6-19.12 42.73-42.73 42.85h-.12" stroke="#000" stroke-opacity="0" fill="#669df6"/><use xlink:href="#k" transform="matrix(1,0,0,1,1488,825.895) translate(20.23456790123457 17.77777777777778)"/><use xlink:href="#c" transform="matrix(1,0,0,1,1488,825.895) translate(2.364197530864203 44.44444444444444)"/><use xlink:href="#l" transform="matrix(1,0,0,1,1488,825.895) translate(72.67283950617283 44.44444444444444)"/><path d="M1025.06 765.47c-1 3.47-2.5 6.23-4.84 9l1.38.8 11.17 6.42 11.17 6.43 1.23-2.22 1.3-2.2 1.27-2.2 1.26-2.23-11.17-6.44-11.16-6.43z" stroke="#000" stroke-opacity="0" stroke-width=".5" fill="#4285f4"/><path d="M978.4 765.86l-1.75 1-5.55 3.2-5.55 3.23-5.55 3.2-5.55 3.22.64 1.1.63 1.1.63 1.1.64 1.1.6 1.08.64 1.1.64 1.12.63 1.1 5.56-3.23 5.55-3.22 5.6-3.2 5.53-3.2 1.62-.97c-2.37-2.68-3.87-5.4-4.94-8.85z" stroke="#000" stroke-opacity="0" stroke-width=".87" fill="#4285f4"/><path d="M996.35 706.98V735c1.82-.4 3.4-.6 5.26-.64 1.75 0 3.2.14 4.9.5V707h-7.62z" stroke="#000" stroke-opacity="0" fill="#4285f4"/><path d="M1057.08 732.57c0 6.08-4.93 11-11 11s-11-4.92-11-11c0-6.07 4.93-11 11-11s11 4.93 11 11zM968 732.57c0 6.08-4.92 11-11 11-6.07 0-11-4.92-11-11 0-6.07 4.93-11 11-11 6.08 0 11 4.93 11 11zM1012.5 809.9c0 6.06-4.93 11-11 11s-11-4.94-11-11c0-6.1 4.93-11.02 11-11.02s11 4.93 11 11z" stroke="#000" stroke-opacity="0" fill="#8ab3f8"/><path d="M1019.17 758.3c0 9.82-7.94 17.8-17.73 17.8-9.78 0-17.72-7.98-17.72-17.8s7.94-17.8 17.72-17.8c9.8 0 17.73 7.98 17.73 17.8zM970.96 784.1c0 7.73-6.26 14-13.98 14-7.72 0-13.98-6.27-13.98-14 0-7.74 6.26-14.02 13.98-14.02 7.72 0 13.98 6.28 13.98 14zM1060 784.1c0 7.73-6.26 14-13.98 14-7.72 0-13.98-6.27-13.98-14 0-7.74 6.26-14.02 13.98-14.02 7.72 0 13.98 6.28 13.98 14zM1015.42 706.9c0 7.75-6.26 14.03-13.98 14.03-7.72 0-13.98-6.28-13.98-14.02 0-7.73 6.26-14 13.98-14 7.72 0 13.98 6.27 13.98 14z" stroke="#000" stroke-opacity="0" fill="#aecbfa"/><path d="M1001.5 699.3l-52.65 25v65.08l52.76 25.12 52.55-25.12V724.4z" stroke="#000" stroke-opacity="0" stroke-width=".01" fill-opacity="0"/><use xlink:href="#m" transform="matrix(1,0,0,1,943,825.895) translate(26.4320987654321 17.77777777777778)"/><use xlink:href="#f" transform="matrix(1,0,0,1,943,825.895) translate(25.16666666666667 44.44444444444444)"/><path d="M248.5 756.9h138.97" stroke="#3a414a" fill="none"/><path d="M248.5 757.4H245v-1h3.5z" stroke="#3a414a" stroke-width=".05" fill="#3a414a"/><path d="M402.23 756.9l-14.26 4.63v-9.27z" stroke="#3a414a" fill="#3a414a"/><path d="M509.65 756.9h138.97" stroke="#3a414a" fill="none"/><path d="M509.66 757.4h-.5v-1h.5z" stroke="#3a414a" stroke-width=".05" fill="#3a414a"/><path d="M663.38 756.9l-14.26 4.63v-9.27z" stroke="#3a414a" fill="#3a414a"/><path d="M793.5 756.9h138.97" stroke="#3a414a" fill="none"/><path d="M793.5 757.4h-.5v-1h.5z" stroke="#3a414a" stroke-width=".05" fill="#3a414a"/><path d="M947.23 756.9l-14.26 4.63v-9.27z" stroke="#3a414a" fill="#3a414a"/><path d="M1054.65 756.9h138.97" stroke="#3a414a" fill="none"/><path d="M1054.66 757.4h-.5v-1h.5z" stroke="#3a414a" stroke-width=".05" fill="#3a414a"/><path d="M1208.38 756.9l-14.26 4.63v-9.27z" stroke="#3a414a" fill="#3a414a"/><path d="M1274.67 705.2V596.37" stroke="#3a414a" fill="none"/><path d="M1275.17 705.7h-1v-.52h1z" stroke="#3a414a" stroke-width=".05" fill="#3a414a"/><path d="M1274.67 581.62l4.63 14.26h-9.27z" stroke="#3a414a" fill="#3a414a"/><path d="M1338.5 756.9H1472" stroke="#3a414a" fill="none"/><path d="M1338.5 757.4h-.5v-1h.5z" stroke="#3a414a" stroke-width=".05" fill="#3a414a"/><path d="M1486.78 756.9l-14.27 4.63v-9.27z" stroke="#3a414a" fill="#3a414a"/><path d="M793.5 732h136.2" stroke="#3a414a" fill="none"/><path d="M793.5 732.5h-.5v-1h.5z" stroke="#3a414a" stroke-width=".05" fill="#3a414a"/><path d="M944.46 732l-14.26 4.64v-9.28z" stroke="#3a414a" fill="#3a414a"/><path d="M793.47 782.68H926.8" stroke="#3a414a" fill="none"/><path d="M793.48 783.18h-.5v-1h.5z" stroke="#3a414a" stroke-width=".05" fill="#3a414a"/><path d="M941.57 782.68l-14.27 4.64v-9.27z" stroke="#3a414a" fill="#3a414a"/><path d="M1057.2 729.76h136.44" stroke="#3a414a" fill="none"/><path d="M1057.22 730.26h-.45l-.07-.54-.2-.46h.72z" stroke="#3a414a" stroke-width=".05" fill="#3a414a"/><path d="M1208.4 729.76l-14.26 4.64v-9.27z" stroke="#3a414a" fill="#3a414a"/><path d="M1059.92 788h133.7" stroke="#3a414a" fill="none"/><path d="M1059.93 788.5h-.72l.32-.76.04-.25h.37z" stroke="#3a414a" stroke-width=".05" fill="#3a414a"/><path d="M1208.38 788l-14.26 4.62v-9.27z" stroke="#3a414a" fill="#3a414a"/><path d="M1338.5 724h139.62" stroke="#3a414a" fill="none"/><path d="M1338.5 724.5h-.5v-1h.5z" stroke="#3a414a" stroke-width=".05" fill="#3a414a"/><path d="M1492.9 724l-14.28 4.64v-9.28z" stroke="#3a414a" fill="#3a414a"/><path d="M1338.48 785.34h144.95" stroke="#3a414a" fill="none"/><path d="M1338.5 785.84h-.52v-1h.5z" stroke="#3a414a" stroke-width=".05" fill="#3a414a"/><path d="M1498.2 785.34l-14.27 4.64v-9.28z" stroke="#3a414a" fill="#3a414a"/><path d="M1244.47 705.2V596.37" stroke="#3a414a" fill="none"/><path d="M1244.97 705.7h-1v-.52h1z" stroke="#3a414a" stroke-width=".05" fill="#3a414a"/><path d="M1244.47 581.62l4.63 14.26h-9.27z" stroke="#3a414a" fill="#3a414a"/><path d="M1303.53 705.2V596.37" stroke="#3a414a" fill="none"/><path d="M1304.03 705.7h-1v-.52h1z" stroke="#3a414a" stroke-width=".05" fill="#3a414a"/><path d="M1303.53 581.62l4.64 14.26h-9.27z" stroke="#3a414a" fill="#3a414a"/><defs><path fill="#3a414a" d="M212-179c-10-28-35-45-73-45-59 0-87 40-87 99 0 60 29 101 89 101 43 0 62-24 78-52l27 14C228-24 195 4 139 4 59 4 22-46 18-125c-6-104 99-153 187-111 19 9 31 26 39 46" id="n"/><path fill="#3a414a" d="M24 0v-261h32V0H24" id="o"/><path fill="#3a414a" d="M100-194c62-1 85 37 85 99 1 63-27 99-86 99S16-35 15-95c0-66 28-99 85-99zM99-20c44 1 53-31 53-75 0-43-8-75-51-75s-53 32-53 75 10 74 51 75" id="p"/><path fill="#3a414a" d="M84 4C-5 8 30-112 23-190h32v120c0 31 7 50 39 49 72-2 45-101 50-169h31l1 190h-30c-1-10 1-25-2-33-11 22-28 36-60 37" id="q"/><path fill="#3a414a" d="M85-194c31 0 48 13 60 33l-1-100h32l1 261h-30c-2-10 0-23-3-31C134-8 116 4 85 4 32 4 16-35 15-94c0-66 23-100 70-100zm9 24c-40 0-46 34-46 75 0 40 6 74 45 74 42 0 51-32 51-76 0-42-9-74-50-73" id="r"/><g id="a"><use transform="matrix(0.06172839506172839,0,0,0.06172839506172839,0,0)" xlink:href="#n"/><use transform="matrix(0.06172839506172839,0,0,0.06172839506172839,15.987654320987653,0)" xlink:href="#o"/><use transform="matrix(0.06172839506172839,0,0,0.06172839506172839,20.864197530864196,0)" xlink:href="#p"/><use transform="matrix(0.06172839506172839,0,0,0.06172839506172839,33.20987654320987,0)" xlink:href="#q"/><use transform="matrix(0.06172839506172839,0,0,0.06172839506172839,45.55555555555555,0)" xlink:href="#r"/></g><path fill="#3a414a" d="M185-189c-5-48-123-54-124 2 14 75 158 14 163 119 3 78-121 87-175 55-17-10-28-26-33-46l33-7c5 56 141 63 141-1 0-78-155-14-162-118-5-82 145-84 179-34 5 7 8 16 11 25" id="s"/><path fill="#3a414a" d="M96-169c-40 0-48 33-48 73s9 75 48 75c24 0 41-14 43-38l32 2c-6 37-31 61-74 61-59 0-76-41-82-99-10-93 101-131 147-64 4 7 5 14 7 22l-32 3c-4-21-16-35-41-35" id="t"/><path fill="#3a414a" d="M106-169C34-169 62-67 57 0H25v-261h32l-1 103c12-21 28-36 61-36 89 0 53 116 60 194h-32v-121c2-32-8-49-39-48" id="u"/><path fill="#3a414a" d="M100-194c63 0 86 42 84 106H49c0 40 14 67 53 68 26 1 43-12 49-29l28 8c-11 28-37 45-77 45C44 4 14-33 15-96c1-61 26-98 85-98zm52 81c6-60-76-77-97-28-3 7-6 17-6 28h103" id="v"/><path fill="#3a414a" d="M114-163C36-179 61-72 57 0H25l-1-190h30c1 12-1 29 2 39 6-27 23-49 58-41v29" id="w"/><g id="b"><use transform="matrix(0.06172839506172839,0,0,0.06172839506172839,0,0)" xlink:href="#s"/><use transform="matrix(0.06172839506172839,0,0,0.06172839506172839,14.814814814814813,0)" xlink:href="#t"/><use transform="matrix(0.06172839506172839,0,0,0.06172839506172839,25.925925925925924,0)" xlink:href="#u"/><use transform="matrix(0.06172839506172839,0,0,0.06172839506172839,38.2716049382716,0)" xlink:href="#v"/><use transform="matrix(0.06172839506172839,0,0,0.06172839506172839,50.61728395061728,0)" xlink:href="#r"/><use transform="matrix(0.06172839506172839,0,0,0.06172839506172839,62.962962962962955,0)" xlink:href="#q"/><use transform="matrix(0.06172839506172839,0,0,0.06172839506172839,75.30864197530863,0)" xlink:href="#o"/><use transform="matrix(0.06172839506172839,0,0,0.06172839506172839,80.18518518518518,0)" xlink:href="#v"/><use transform="matrix(0.06172839506172839,0,0,0.06172839506172839,92.53086419753086,0)" xlink:href="#w"/></g><path fill="#3a414a" d="M30 0v-248h187v28H63v79h144v27H63v87h162V0H30" id="x"/><path fill="#3a414a" d="M141 0L90-78 38 0H4l68-98-65-92h35l48 74 47-74h35l-64 92 68 98h-35" id="y"/><path fill="#3a414a" d="M115-194c55 1 70 41 70 98S169 2 115 4C84 4 66-9 55-30l1 105H24l-1-265h31l2 30c10-21 28-34 59-34zm-8 174c40 0 45-34 45-75s-6-73-45-74c-42 0-51 32-51 76 0 43 10 73 51 73" id="z"/><path fill="#3a414a" d="M59-47c-2 24 18 29 38 22v24C64 9 27 4 27-40v-127H5v-23h24l9-43h21v43h35v23H59v120" id="A"/><g id="c"><use transform="matrix(0.06172839506172839,0,0,0.06172839506172839,0,0)" xlink:href="#x"/><use transform="matrix(0.06172839506172839,0,0,0.06172839506172839,14.814814814814813,0)" xlink:href="#y"/><use transform="matrix(0.06172839506172839,0,0,0.06172839506172839,25.925925925925924,0)" xlink:href="#z"/><use transform="matrix(0.06172839506172839,0,0,0.06172839506172839,38.2716049382716,0)" xlink:href="#p"/><use transform="matrix(0.06172839506172839,0,0,0.06172839506172839,50.61728395061728,0)" xlink:href="#w"/><use transform="matrix(0.06172839506172839,0,0,0.06172839506172839,57.962962962962955,0)" xlink:href="#A"/></g><path fill="#3a414a" d="M127-220V0H93v-220H8v-28h204v28h-85" id="B"/><path fill="#3a414a" d="M141-36C126-15 110 5 73 4 37 3 15-17 15-53c-1-64 63-63 125-63 3-35-9-54-41-54-24 1-41 7-42 31l-33-3c5-37 33-52 76-52 45 0 72 20 72 64v82c-1 20 7 32 28 27v20c-31 9-61-2-59-35zM48-53c0 20 12 33 32 33 41-3 63-29 60-74-43 2-92-5-92 41" id="C"/><path fill="#3a414a" d="M135-143c-3-34-86-38-87 0 15 53 115 12 119 90S17 21 10-45l28-5c4 36 97 45 98 0-10-56-113-15-118-90-4-57 82-63 122-42 12 7 21 19 24 35" id="D"/><path fill="#3a414a" d="M143 0L79-87 56-68V0H24v-261h32v163l83-92h37l-77 82L181 0h-38" id="E"/><g id="d"><use transform="matrix(0.06172839506172839,0,0,0.06172839506172839,0,0)" xlink:href="#B"/><use transform="matrix(0.06172839506172839,0,0,0.06172839506172839,11.049382716049381,0)" xlink:href="#C"/><use transform="matrix(0.06172839506172839,0,0,0.06172839506172839,23.39506172839506,0)" xlink:href="#D"/><use transform="matrix(0.06172839506172839,0,0,0.06172839506172839,34.50617283950617,0)" xlink:href="#E"/><use transform="matrix(0.06172839506172839,0,0,0.06172839506172839,45.61728395061728,0)" xlink:href="#D"/></g><path fill="#3a414a" d="M240 0l2-218c-23 76-54 145-80 218h-23L58-218 59 0H30v-248h44l77 211c21-75 51-140 76-211h43V0h-30" id="F"/><path fill="#3a414a" d="M24-231v-30h32v30H24zM24 0v-190h32V0H24" id="G"/><g id="e"><use transform="matrix(0.06172839506172839,0,0,0.06172839506172839,0,0)" xlink:href="#F"/><use transform="matrix(0.06172839506172839,0,0,0.06172839506172839,18.456790123456788,0)" xlink:href="#q"/><use transform="matrix(0.06172839506172839,0,0,0.06172839506172839,30.80246913580247,0)" xlink:href="#o"/><use transform="matrix(0.06172839506172839,0,0,0.06172839506172839,35.67901234567901,0)" xlink:href="#A"/><use transform="matrix(0.06172839506172839,0,0,0.06172839506172839,41.851851851851855,0)" xlink:href="#G"/><use transform="matrix(0.06172839506172839,0,0,0.06172839506172839,46.7283950617284,0)" xlink:href="#z"/><use transform="matrix(0.06172839506172839,0,0,0.06172839506172839,59.074074074074076,0)" xlink:href="#o"/><use transform="matrix(0.06172839506172839,0,0,0.06172839506172839,63.95061728395061,0)" xlink:href="#v"/><use transform="matrix(0.06172839506172839,0,0,0.06172839506172839,76.2962962962963,0)" xlink:href="#y"/><use transform="matrix(0.06172839506172839,0,0,0.06172839506172839,87.40740740740742,0)" xlink:href="#v"/><use transform="matrix(0.06172839506172839,0,0,0.06172839506172839,99.7530864197531,0)" xlink:href="#w"/></g><path fill="#3a414a" d="M140-251c81 0 123 46 123 126C263-53 228-8 163 1c7 30 30 48 69 40v23c-55 16-95-15-103-61C56-3 17-48 17-125c0-80 42-126 123-126zm0 227c63 0 89-41 89-101s-29-99-89-99c-61 0-89 39-89 99S79-25 140-24" id="H"/><g id="f"><use transform="matrix(0.06172839506172839,0,0,0.06172839506172839,0,0)" xlink:href="#H"/><use transform="matrix(0.06172839506172839,0,0,0.06172839506172839,17.28395061728395,0)" xlink:href="#q"/><use transform="matrix(0.06172839506172839,0,0,0.06172839506172839,29.629629629629626,0)" xlink:href="#v"/><use transform="matrix(0.06172839506172839,0,0,0.06172839506172839,41.9753086419753,0)" xlink:href="#q"/><use transform="matrix(0.06172839506172839,0,0,0.06172839506172839,54.32098765432098,0)" xlink:href="#v"/></g><g id="g"><use transform="matrix(0.06172839506172839,0,0,0.06172839506172839,0,0)" xlink:href="#F"/><use transform="matrix(0.06172839506172839,0,0,0.06172839506172839,18.456790123456788,0)" xlink:href="#q"/><use transform="matrix(0.06172839506172839,0,0,0.06172839506172839,30.80246913580247,0)" xlink:href="#o"/><use transform="matrix(0.06172839506172839,0,0,0.06172839506172839,35.67901234567901,0)" xlink:href="#A"/><use transform="matrix(0.06172839506172839,0,0,0.06172839506172839,41.851851851851855,0)" xlink:href="#G"/><use transform="matrix(0.06172839506172839,0,0,0.06172839506172839,46.7283950617284,0)" xlink:href="#z"/><use transform="matrix(0.06172839506172839,0,0,0.06172839506172839,59.074074074074076,0)" xlink:href="#o"/><use transform="matrix(0.06172839506172839,0,0,0.06172839506172839,63.95061728395061,0)" xlink:href="#v"/><use transform="matrix(0.06172839506172839,0,0,0.06172839506172839,76.2962962962963,0)" xlink:href="#y"/><use transform="matrix(0.06172839506172839,0,0,0.06172839506172839,87.40740740740742,0)" xlink:href="#v"/><use transform="matrix(0.06172839506172839,0,0,0.06172839506172839,99.7530864197531,0)" xlink:href="#w"/></g><g id="h"><use transform="matrix(0.06172839506172839,0,0,0.06172839506172839,0,0)" xlink:href="#x"/><use transform="matrix(0.06172839506172839,0,0,0.06172839506172839,14.814814814814813,0)" xlink:href="#y"/><use transform="matrix(0.06172839506172839,0,0,0.06172839506172839,25.925925925925924,0)" xlink:href="#z"/><use transform="matrix(0.06172839506172839,0,0,0.06172839506172839,38.2716049382716,0)" xlink:href="#p"/><use transform="matrix(0.06172839506172839,0,0,0.06172839506172839,50.61728395061728,0)" xlink:href="#w"/><use transform="matrix(0.06172839506172839,0,0,0.06172839506172839,57.962962962962955,0)" xlink:href="#A"/><use transform="matrix(0.06172839506172839,0,0,0.06172839506172839,64.1358024691358,0)" xlink:href="#v"/><use transform="matrix(0.06172839506172839,0,0,0.06172839506172839,76.48148148148148,0)" xlink:href="#w"/></g><g id="i"><use transform="matrix(0.06172839506172839,0,0,0.06172839506172839,0,0)" xlink:href="#n"/><use transform="matrix(0.06172839506172839,0,0,0.06172839506172839,15.987654320987653,0)" xlink:href="#o"/><use transform="matrix(0.06172839506172839,0,0,0.06172839506172839,20.864197530864196,0)" xlink:href="#p"/><use transform="matrix(0.06172839506172839,0,0,0.06172839506172839,33.20987654320987,0)" xlink:href="#q"/><use transform="matrix(0.06172839506172839,0,0,0.06172839506172839,45.55555555555555,0)" xlink:href="#r"/></g><path fill="#3a414a" d="M117-194c89-4 53 116 60 194h-32v-121c0-31-8-49-39-48C34-167 62-67 57 0H25l-1-190h30c1 10-1 24 2 32 11-22 29-35 61-36" id="I"/><path fill="#3a414a" d="M177-190C167-65 218 103 67 71c-23-6-38-20-44-43l32-5c15 47 100 32 89-28v-30C133-14 115 1 83 1 29 1 15-40 15-95c0-56 16-97 71-98 29-1 48 16 59 35 1-10 0-23 2-32h30zM94-22c36 0 50-32 50-73 0-42-14-75-50-75-39 0-46 34-46 75s6 73 46 73" id="J"/><g id="j"><use transform="matrix(0.06172839506172839,0,0,0.06172839506172839,0,0)" xlink:href="#F"/><use transform="matrix(0.06172839506172839,0,0,0.06172839506172839,18.456790123456788,0)" xlink:href="#p"/><use transform="matrix(0.06172839506172839,0,0,0.06172839506172839,30.80246913580247,0)" xlink:href="#I"/><use transform="matrix(0.06172839506172839,0,0,0.06172839506172839,43.148148148148145,0)" xlink:href="#G"/><use transform="matrix(0.06172839506172839,0,0,0.06172839506172839,48.02469135802469,0)" xlink:href="#A"/><use transform="matrix(0.06172839506172839,0,0,0.06172839506172839,54.19753086419753,0)" xlink:href="#p"/><use transform="matrix(0.06172839506172839,0,0,0.06172839506172839,66.54320987654322,0)" xlink:href="#w"/><use transform="matrix(0.06172839506172839,0,0,0.06172839506172839,73.8888888888889,0)" xlink:href="#G"/><use transform="matrix(0.06172839506172839,0,0,0.06172839506172839,78.76543209876544,0)" xlink:href="#I"/><use transform="matrix(0.06172839506172839,0,0,0.06172839506172839,91.11111111111113,0)" xlink:href="#J"/></g><path fill="#3a414a" d="M160-131c35 5 61 23 61 61C221 17 115-2 30 0v-248c76 3 177-17 177 60 0 33-19 50-47 57zm-97-11c50-1 110 9 110-42 0-47-63-36-110-37v79zm0 115c55-2 124 14 124-45 0-56-70-42-124-44v89" id="K"/><path fill="#3a414a" d="M145-31C134-9 116 4 85 4 32 4 16-35 15-94c0-59 17-99 70-100 32-1 48 14 60 33 0-11-1-24 2-32h30l-1 268h-32zM93-21c41 0 51-33 51-76s-8-73-50-73c-40 0-46 35-46 75s5 74 45 74" id="L"/><path fill="#3a414a" d="M179-190L93 31C79 59 56 82 12 73V49c39 6 53-20 64-50L1-190h34L92-34l54-156h33" id="M"/><g id="k"><use transform="matrix(0.06172839506172839,0,0,0.06172839506172839,0,0)" xlink:href="#K"/><use transform="matrix(0.06172839506172839,0,0,0.06172839506172839,14.814814814814813,0)" xlink:href="#G"/><use transform="matrix(0.06172839506172839,0,0,0.06172839506172839,19.691358024691354,0)" xlink:href="#J"/><use transform="matrix(0.06172839506172839,0,0,0.06172839506172839,32.03703703703703,0)" xlink:href="#L"/><use transform="matrix(0.06172839506172839,0,0,0.06172839506172839,44.38271604938271,0)" xlink:href="#q"/><use transform="matrix(0.06172839506172839,0,0,0.06172839506172839,56.728395061728385,0)" xlink:href="#v"/><use transform="matrix(0.06172839506172839,0,0,0.06172839506172839,69.07407407407406,0)" xlink:href="#w"/><use transform="matrix(0.06172839506172839,0,0,0.06172839506172839,76.41975308641975,0)" xlink:href="#M"/></g><path fill="#3a414a" d="M115-194c53 0 69 39 70 98 0 66-23 100-70 100C84 3 66-7 56-30L54 0H23l1-261h32v101c10-23 28-34 59-34zm-8 174c40 0 45-34 45-75 0-40-5-75-45-74-42 0-51 32-51 76 0 43 10 73 51 73" id="N"/><g id="l"><use transform="matrix(0.06172839506172839,0,0,0.06172839506172839,0,0)" xlink:href="#B"/><use transform="matrix(0.06172839506172839,0,0,0.06172839506172839,11.049382716049381,0)" xlink:href="#C"/><use transform="matrix(0.06172839506172839,0,0,0.06172839506172839,23.39506172839506,0)" xlink:href="#N"/><use transform="matrix(0.06172839506172839,0,0,0.06172839506172839,35.74074074074074,0)" xlink:href="#o"/><use transform="matrix(0.06172839506172839,0,0,0.06172839506172839,40.617283950617285,0)" xlink:href="#v"/></g><g id="m"><use transform="matrix(0.06172839506172839,0,0,0.06172839506172839,0,0)" xlink:href="#x"/><use transform="matrix(0.06172839506172839,0,0,0.06172839506172839,14.814814814814813,0)" xlink:href="#y"/><use transform="matrix(0.06172839506172839,0,0,0.06172839506172839,25.925925925925924,0)" xlink:href="#z"/><use transform="matrix(0.06172839506172839,0,0,0.06172839506172839,38.2716049382716,0)" xlink:href="#p"/><use transform="matrix(0.06172839506172839,0,0,0.06172839506172839,50.61728395061728,0)" xlink:href="#w"/><use transform="matrix(0.06172839506172839,0,0,0.06172839506172839,57.962962962962955,0)" xlink:href="#A"/></g></defs></g></svg>